<?xml version="1.0" standalone="no"?>
<svg xmlns="http://www.w3.org/2000/svg" viewBox="0 0 810 810" width="810" height="810">
<g transform="translate(-619.500000,1172.804455) scale(0.100000,-0.100000)"
fill="#FFFFFF" stroke="none">
<path d="M8254 11712 c-27 -10 -65 -27 -84 -39 -18 -12 -458 -445 -976 -964
-855 -854 -945 -948 -971 -1003 l-28 -61 0 -1965 0 -1965 32 -65 c29 -59 122
-155 977 -1010 856 -856 951 -948 1008 -975 l63 -30 983 -3 982 -2 0 1010 0
1010 -937 2 -938 3 -42 22 c-50 27 -87 73 -102 128 -16 59 -15 3688 1 3753 17
67 79 126 149 142 40 8 531 10 1899 8 l1845 -3 42 -22 c50 -27 87 -73 102
-128 7 -28 11 -325 11 -957 l0 -918 1010 0 1010 0 -2 984 -3 983 -35 67 c-31
60 -133 165 -975 1007 -850 850 -946 943 -1005 972 l-65 32 -1950 2 c-1837 2
-1953 1 -2001 -15z"/>
<path d="M10240 6667 l0 -1012 1015 -1015 1015 -1015 0 1013 0 1012 1012 0
1013 0 -1015 1015 -1015 1015 -1012 0 -1013 0 0 -1013z"/>
</g>
</svg>
